<svg width="117" height="53" fill="none" xmlns="http://www.w3.org/2000/svg"><g filter="url(#filter0_d)"><path d="M29.704 28.1c0 .24.192.36.576.36.408 0 1.116-.228 2.124-.684 1.008-.48 1.896-.96 2.664-1.44l1.152-.72c.024.048.036.144.036.288s-.108.264-.324.36c-3.24 2.208-5.496 3.312-6.768 3.312-.624 0-.936-.312-.936-.936 0-.624.516-1.812 1.548-3.564l6.336-11.016c0-.072-.048-.108-.144-.108-.072 0-.228.12-.468.36-.24.216-2.436 2.436-6.588 6.66a3672.1 3672.1 0 00-7.272 7.452c-.408.48-.768.72-1.08.72-.264 0-.396-.156-.396-.468 0-.72 1.572-3.468 4.716-8.244 3.168-4.8 4.812-7.488 4.932-8.064 0-.072-.036-.108-.108-.108-.048 0-.252.18-.612.54-.336.336-2.82 2.916-7.452 7.74s-7.32 7.656-8.064 8.496a1.003 1.003 0 01-.612.216c-.24 0-.36-.108-.36-.324 0-.168.108-.432.324-.792.216-.36.516-.876.9-1.548.408-.672 1.116-1.944 2.124-3.816a85.772 85.772 0 002.7-5.292 44.8 44.8 0 002.124-5.328c.648-1.896.972-3.444.972-4.644 0-1.992-.864-2.988-2.592-2.988-1.992 0-4.092.576-6.3 1.728-2.232 1.128-4.044 2.436-5.436 3.924-1.392 1.488-2.088 2.772-2.088 3.852 0 1.248 1.02 1.872 3.06 1.872 2.016 0 3.936-.624 5.76-1.872 1.848-1.272 3.156-2.628 3.924-4.068.12-.144.216-.216.288-.216.072 0 .108.168.108.504 0 .312-.264.864-.792 1.656-.528.792-1.224 1.596-2.088 2.412-.84.792-1.908 1.476-3.204 2.052-1.32.576-2.664.864-4.032.864-2.736 0-4.104-.9-4.104-2.7 0-.984.432-2.076 1.296-3.276.864-1.224 1.992-2.376 3.384-3.456s3.072-1.98 5.04-2.7c1.992-.744 3.972-1.116 5.94-1.116 2.232 0 3.348 1.164 3.348 3.492 0 1.2-.3 2.688-.9 4.464a40.326 40.326 0 01-2.088 5.184c-1.656 3.288-3.216 6.072-4.68 8.352l-.864 1.404c.096-.048 1.272-1.248 3.528-3.6 7.464-7.728 11.52-11.916 12.168-12.564.456 0 .732.06.828.18.096.12.144.204.144.252v.036c0 .648-2.172 4.38-6.516 11.196a454.803 454.803 0 00-2.736 4.284l-.324.72c.192 0 1.428-1.2 3.708-3.6a650.828 650.828 0 016.912-7.236c2.352-2.424 3.696-3.636 4.032-3.636.144 0 .3.072.468.216.168.12.252.252.252.396a.959.959 0 01-.108.432L30.64 25.616c-.624 1.152-.936 1.98-.936 2.484zm5.767-1.512a.58.58 0 01-.252.072c-.096 0-.144-.048-.144-.144 0-.096.036-.18.108-.252.984-.552 2.064-1.452 3.24-2.7-1.08-.336-1.62-.804-1.62-1.404 0-.624.408-1.308 1.224-2.052.816-.768 1.584-1.152 2.304-1.152.48 0 .72.288.72.864 0 .888-.444 1.836-1.332 2.844 1.152.192 1.728.468 1.728.828 0 .48-.216.852-.648 1.116-.408.24-.888.684-1.44 1.332-.552.648-.828 1.296-.828 1.944a.62.62 0 00.144.396c.096.12.3.18.612.18s.972-.228 1.98-.684c1.008-.48 1.896-.96 2.664-1.44l1.152-.72c.024.048.036.144.036.288s-.108.264-.324.36c-3.24 2.208-5.496 3.312-6.768 3.312-.624 0-.936-.312-.936-.936 0-.504.168-1.032.504-1.584a6.665 6.665 0 011.152-1.368c.432-.36.816-.696 1.152-1.008.36-.336.54-.552.54-.648 0-.096-.156-.156-.468-.18a10.75 10.75 0 01-1.152-.18c-1.32 1.416-2.436 2.388-3.348 2.916zm2.232-5.004c0 .48.528.816 1.584 1.008.624-.768.936-1.428.936-1.98 0-.576-.18-.864-.54-.864-.36 0-.78.216-1.26.648-.48.408-.72.804-.72 1.188zm9.76 6.876c0 .264-.12.516-.36.756-.216.24-.468.36-.756.36-.264 0-.468-.06-.612-.18-.12-.12-.192-.324-.216-.612 0-.288.132-.528.396-.72.264-.192.516-.288.756-.288.528 0 .792.228.792.684zm.1.504c0-1.248.96-2.508 2.88-3.78 1.897-1.272 4.237-2.292 7.02-3.06 2.809-.792 5.509-1.188 8.1-1.188.649 0 1.357.036 2.125.108 5.28-4.944 7.92-10.044 7.92-15.3 0-1.416-.468-2.124-1.404-2.124-.576 0-1.236.3-1.98.9-.744.576-1.464 1.344-2.16 2.304-.672.96-1.248 2.148-1.728 3.564a14.592 14.592 0 00-.684 4.5c0 1.56.216 2.472.648 2.736.12.072.18.156.18.252-.192.408-.468.612-.828.612-.336 0-.612-.096-.828-.288-.192-.216-.288-.516-.288-.9 0-2.112.3-4.164.9-6.156.624-2.016 1.38-3.684 2.268-5.004.888-1.344 1.824-2.424 2.808-3.24.984-.816 1.86-1.224 2.628-1.224 1.296 0 1.944 1.02 1.944 3.06 0 5.88-2.76 11.364-8.28 16.452 2.568.456 3.852 1.356 3.852 2.7 0 .48-.312.984-.936 1.512-.6.504-1.092.768-1.476.792-.36.024-.552-.012-.576-.108 0-.072.132-.192.396-.36 1.008-.624 1.512-1.152 1.512-1.584 0-.984-1.356-1.584-4.068-1.8a42.62 42.62 0 01-9.72 6.228c-3.48 1.608-5.988 2.412-7.524 2.412-.768 0-1.368-.168-1.8-.504-.456-.336-.72-.672-.792-1.008l-.108-.504zm17.749-6.732c-2.376 0-4.824.288-7.344.864-2.496.576-4.608 1.356-6.336 2.34-1.752.984-2.64 1.992-2.664 3.024.072.888.744 1.332 2.016 1.332 1.704 0 4.02-.696 6.948-2.088 2.928-1.392 5.724-3.204 8.388-5.436-.24-.024-.576-.036-1.008-.036zm23.011 4.032c-1.271 0-2.58.192-3.923.576-3.12 4.872-6.073 8.976-8.857 12.312-2.76 3.36-4.764 5.04-6.012 5.04-.84 0-1.26-.468-1.26-1.404 0-.912.409-2.136 1.225-3.672.816-1.536 1.883-3.12 3.204-4.752 1.343-1.608 2.975-3.168 4.895-4.68 1.945-1.488 3.912-2.604 5.904-3.348 2.473-4.224 4.597-8.208 6.373-11.952 1.775-3.744 2.663-6.156 2.663-7.236 0-1.416-.551-2.124-1.656-2.124-1.08 0-2.556.66-4.428 1.98-1.871 1.32-3.683 2.892-5.435 4.716a35.435 35.435 0 00-4.573 5.868c-1.272 2.088-1.907 3.768-1.907 5.04 0 1.272.611 1.908 1.835 1.908 1.297 0 2.749-.768 4.357-2.304 1.632-1.536 2.58-2.844 2.844-3.924.047-.168.156-.252.323-.252.193 0 .288.084.288.252 0 1.272-1.116 2.82-3.348 4.644-2.231 1.8-4.127 2.7-5.688 2.7-1.248 0-1.872-.756-1.872-2.268 0-1.536.709-3.456 2.124-5.76a38.192 38.192 0 015.076-6.444c1.969-1.992 4.02-3.696 6.157-5.112 2.16-1.416 3.911-2.124 5.255-2.124 1.609 0 2.412 1.044 2.412 3.132 0 1.248-.888 3.648-2.664 7.2-1.776 3.552-3.972 7.404-6.588 11.556 1.368-.36 2.437-.54 3.204-.54.792 0 1.392.12 1.8.36.433.216.648.504.648.864 0 .768-.251 1.476-.755 2.124-.48.648-1.044.972-1.693.972-.096 0-.144-.036-.144-.108 0-.24.168-.444.505-.612.456-.408.684-.948.684-1.62 0-.672-.325-1.008-.973-1.008zm-18.575 15.48c0 .552.215.828.647.828 1.153 0 2.845-1.428 5.077-4.284 2.256-2.856 4.716-6.48 7.38-10.872-2.329.936-4.549 2.4-6.66 4.392-2.112 2.016-3.708 3.936-4.788 5.76-1.105 1.824-1.656 3.216-1.656 4.176zM99.353 26.48c-.744.456-1.608.684-2.592.684h-.432A9.89 9.89 0 0194.242 29c-.72.456-1.344.684-1.872.684-.744 0-1.116-.48-1.116-1.44s.516-2.076 1.548-3.348c-.096-.264-.144-.588-.144-.972 0-.84.36-1.56 1.08-2.16.744-.624 1.464-.936 2.16-.936 1.464 0 2.196.792 2.196 2.376 0 1.056-.456 2.208-1.368 3.456h.432c.768 0 1.428-.18 1.98-.54a.39.39 0 01.288-.108c.12 0 .18.048.18.144 0 .072-.084.18-.252.324zm-3.456-4.14a.83.83 0 01.288-.072c.072 0 .108.06.108.18 0 .096-.132.24-.396.432-.96.744-1.68 1.416-2.16 2.016.528.84 1.332 1.392 2.412 1.656.936-1.104 1.404-2.136 1.404-3.096 0-.552-.18-.972-.54-1.26-.36-.288-.828-.432-1.404-.432-.552 0-1.068.168-1.548.504-.48.312-.72.66-.72 1.044 0 .36.036.648.108.864a9.35 9.35 0 012.448-1.836zm-2.664 3.348a4.157 4.157 0 00-.576 2.16c0 .432.192.648.576.648.648 0 1.452-.48 2.412-1.44-1.08-.192-1.884-.648-2.412-1.368zm5.653.576c.456-.264 1.056-.684 1.8-1.26 1.824-1.44 2.796-2.16 2.916-2.16.36 0 .54.156.54.468 0 .312-.192.792-.576 1.44-.36.648-.78 1.32-1.26 2.016-.456.696-.72 1.116-.792 1.26.024.024.072.036.144.036.096 0 .576-.312 1.44-.936.864-.648 1.764-1.32 2.7-2.016.936-.72 1.488-1.128 1.656-1.224.168-.12.324-.18.468-.18.288.024.432.192.432.504 0 .12-.408.732-1.224 1.836-.816 1.08-1.224 1.776-1.224 2.088 0 .216.252.324.756.324.528 0 1.296-.228 2.304-.684 1.008-.48 1.896-.96 2.664-1.44l1.152-.72c.024.048.036.144.036.288s-.108.264-.324.36c-3.24 2.208-5.496 3.312-6.768 3.312-.744 0-1.116-.288-1.116-.864 0-.552.156-1.08.468-1.584.336-.504.624-.924.864-1.26.24-.36.36-.552.36-.576-1.104.792-2.412 1.74-3.924 2.844-1.512 1.104-2.364 1.656-2.556 1.656-.144 0-.216-.168-.216-.504 0-.336.468-1.212 1.404-2.628.96-1.416 1.44-2.172 1.44-2.268 0-.096-.024-.144-.072-.144l-.36.18-1.8 1.44a9.52 9.52 0 01-.684.468c-.336.216-.552.324-.648.324-.072 0-.108-.048-.108-.144 0-.12.036-.204.108-.252z" fill="#AAEB14"/></g><g style="mix-blend-mode:color-dodge" filter="url(#filter1_d)"><path d="M12.75 32h99.75" stroke="#D5F390" stroke-opacity=".61" stroke-linecap="round" stroke-linejoin="round"/></g><defs><filter id="filter0_d" x=".252" y="1.676" width="116.567" height="50.516" filterUnits="userSpaceOnUse" color-interpolation-filters="sRGB"><feFlood flood-opacity="0" result="BackgroundImageFix"/><feColorMatrix in="SourceAlpha" values="0 0 0 0 0 0 0 0 0 0 0 0 0 0 0 0 0 0 127 0"/><feOffset dy="4"/><feGaussianBlur stdDeviation="2"/><feColorMatrix values="0 0 0 0 0 0 0 0 0 0 0 0 0 0 0 0 0 0 0.25 0"/><feBlend in2="BackgroundImageFix" result="effect1_dropShadow"/><feBlend in="SourceGraphic" in2="effect1_dropShadow" result="shape"/></filter><filter id="filter1_d" x="8.25" y="31.5" width="108.75" height="9" filterUnits="userSpaceOnUse" color-interpolation-filters="sRGB"><feFlood flood-opacity="0" result="BackgroundImageFix"/><feColorMatrix in="SourceAlpha" values="0 0 0 0 0 0 0 0 0 0 0 0 0 0 0 0 0 0 127 0"/><feOffset dy="4"/><feGaussianBlur stdDeviation="2"/><feColorMatrix values="0 0 0 0 0 0 0 0 0 0 0 0 0 0 0 0 0 0 0.25 0"/><feBlend in2="BackgroundImageFix" result="effect1_dropShadow"/><feBlend in="SourceGraphic" in2="effect1_dropShadow" result="shape"/></filter></defs></svg>